<?xml version="1.0" encoding="UTF-8" standalone="no"?>
<!-- Created with Inkscape (http://www.inkscape.org/) -->

<svg
   width="1349"
   height="593"
   viewBox="0 0 356.92291 156.89791"
   version="1.1"
   id="svg1132"
   inkscape:version="1.2.1 (9c6d41e410, 2022-07-14, custom)"
   sodipodi:docname="Crag.svg"
   inkscape:export-filename="Crag.png"
   inkscape:export-xdpi="96"
   inkscape:export-ydpi="96"
   xmlns:inkscape="http://www.inkscape.org/namespaces/inkscape"
   xmlns:sodipodi="http://sodipodi.sourceforge.net/DTD/sodipodi-0.dtd"
   xmlns="http://www.w3.org/2000/svg"
   xmlns:svg="http://www.w3.org/2000/svg">
  <sodipodi:namedview
     id="namedview1134"
     pagecolor="#ffffff"
     bordercolor="#666666"
     borderopacity="1.0"
     inkscape:showpageshadow="2"
     inkscape:pageopacity="0.0"
     inkscape:pagecheckerboard="0"
     inkscape:deskcolor="#d1d1d1"
     inkscape:document-units="mm"
     showgrid="false"
     showguides="true"
     inkscape:zoom="0.21863562"
     inkscape:cx="1164.0372"
     inkscape:cy="244.69938"
     inkscape:window-width="1366"
     inkscape:window-height="708"
     inkscape:window-x="0"
     inkscape:window-y="0"
     inkscape:window-maximized="1"
     inkscape:current-layer="layer1" />
  <defs
     id="defs1129" />
  <g
     inkscape:label="Layer 1"
     inkscape:groupmode="layer"
     id="layer1">
    <path
       style="fill:#ab5a1d;fill-opacity:1;stroke:#000000;stroke-width:1.984375;stroke-linecap:butt;stroke-linejoin:miter;stroke-dasharray:none;stroke-opacity:1"
       d="m -10.55657,23.276609 58.2892,-19.0965004 25.618799,24.8218404 45.861511,-11.21362 51.35815,-8.2444804 12.75314,18.1884804 58.47,-9.04804 26.63937,-16.7943104 52.94929,25.8222604 59.59906,-4.58027 -7.3891,149.083671 -405.111353,-5.43205 z"
       id="path79505" />
    <path
       style="fill:#000000;fill-opacity:0.25;stroke:none;stroke-width:0.264583px;stroke-linecap:butt;stroke-linejoin:miter;stroke-opacity:1"
       d="m -21.578706,63.709449 59.600563,16.83071 43.640505,-18.85861 32.156258,36.11472 69.74729,-16.91182 30.96475,-24.49528 40.43011,27.86791 46.67785,7.50054 26.13562,-30.5808 47.58457,14.14486 v 0 L 367.63295,107.60772 343.86952,78.551909 305.15005,112.60448 215.21924,89.825259 106.51095,124.64212 74.926114,89.933409 12.520732,100.62633 -24.515112,90.025339 Z"
       id="path79872"
       sodipodi:nodetypes="cccccccccccccccccccc" />
    <path
       style="fill:#000000;fill-opacity:0.25;stroke:none;stroke-width:0.264583px;stroke-linecap:butt;stroke-linejoin:miter;stroke-opacity:1"
       d="m -32.868337,143.85982 59.60056,16.83071 43.6405,-18.85861 32.156257,36.11472 69.74729,-16.91182 30.96475,-24.49528 40.43012,27.86791 46.67785,7.50054 26.13562,-30.5808 47.58457,14.14486 v 0 l -7.72586,32.28604 -23.76343,-29.05581 -38.71947,34.05257 L 203.9296,169.97563 95.221313,204.79249 63.636483,170.08378 1.2310925,180.7767 -35.804747,170.17571 Z"
       id="path79872-3"
       sodipodi:nodetypes="cccccccccccccccccccc" />
  </g>
</svg>
