<?xml version="1.0" encoding="UTF-8" standalone="no"?>
<!-- Created with Inkscape (http://www.inkscape.org/) -->

<svg
   width="406.66666"
   height="86.667"
   viewBox="0 0 107.59722 22.930643"
   version="1.1"
   id="svg5"
   inkscape:version="1.2 (dc2aedaf03, 2022-05-15)"
   sodipodi:docname="FuelBarEnergy.svg"
   inkscape:export-filename="../PNG/FuelBarBacking.png"
   inkscape:export-xdpi="96.07869"
   inkscape:export-ydpi="96.07869"
   xml:space="preserve"
   xmlns:inkscape="http://www.inkscape.org/namespaces/inkscape"
   xmlns:sodipodi="http://sodipodi.sourceforge.net/DTD/sodipodi-0.dtd"
   xmlns="http://www.w3.org/2000/svg"
   xmlns:svg="http://www.w3.org/2000/svg"><sodipodi:namedview
     id="namedview7"
     pagecolor="#ffffff"
     bordercolor="#666666"
     borderopacity="1.0"
     inkscape:showpageshadow="2"
     inkscape:pageopacity="0.0"
     inkscape:pagecheckerboard="0"
     inkscape:deskcolor="#d1d1d1"
     inkscape:document-units="mm"
     showgrid="false"
     inkscape:zoom="13.437382"
     inkscape:cx="381.73358"
     inkscape:cy="3.1628185"
     inkscape:window-width="1920"
     inkscape:window-height="1001"
     inkscape:window-x="-9"
     inkscape:window-y="-9"
     inkscape:window-maximized="1"
     inkscape:current-layer="g1639" /><defs
     id="defs2" /><g
     inkscape:label="Layer 1"
     inkscape:groupmode="layer"
     id="layer1"><g
       id="g1639"
       style="fill:#00ff22;fill-opacity:1"><path
         style="fill:#00ff00;fill-opacity:1;stroke-width:0.263968"
         d="M 54.109698,21.010458 C 13.813554,21.057121 5.0125583,21.005029 4.3489426,20.715931 3.9055292,20.522761 3.2262143,19.989683 2.839354,19.531312 2.4524936,19.072941 2.0647792,18.315931 1.9777663,17.849068 1.8907535,17.382205 1.8562785,14.191706 1.9011554,10.75907 1.97728,4.936283 2.0192876,4.4691703 2.5278176,3.7907666 2.827605,3.3908356 3.4014124,2.8190782 3.8029451,2.5201949 L 4.5330046,1.9767705 H 53.798605 103.06421 l 0.73005,0.5434244 c 0.40154,0.2988833 0.97535,0.8709605 1.27513,1.2712823 0.51826,0.6920542 0.54507,1.069533 0.54507,7.6737918 0,6.604259 -0.0268,6.981738 -0.54507,7.673792 -0.29978,0.400322 -0.87358,0.972399 -1.2751,1.271282 l -0.73004,0.543424 z"
         id="path1643"
         sodipodi:nodetypes="ssssssscccssssscs" /></g></g></svg>
