<?xml version="1.0" encoding="UTF-8" standalone="no"?>
<!-- Created with Inkscape (http://www.inkscape.org/) -->

<svg
   width="300.28201"
   height="150.282"
   viewBox="0 0 79.449611 39.762113"
   version="1.1"
   id="svg5"
   inkscape:version="1.2.1 (9c6d41e410, 2022-07-14, custom)"
   sodipodi:docname="LowCloud.svg"
   inkscape:export-filename="LowCloud.png"
   inkscape:export-xdpi="95.909843"
   inkscape:export-ydpi="95.909843"
   xmlns:inkscape="http://www.inkscape.org/namespaces/inkscape"
   xmlns:sodipodi="http://sodipodi.sourceforge.net/DTD/sodipodi-0.dtd"
   xmlns="http://www.w3.org/2000/svg"
   xmlns:svg="http://www.w3.org/2000/svg">
  <sodipodi:namedview
     id="namedview7"
     pagecolor="#ffffff"
     bordercolor="#666666"
     borderopacity="1.0"
     inkscape:showpageshadow="2"
     inkscape:pageopacity="0.0"
     inkscape:pagecheckerboard="0"
     inkscape:deskcolor="#d1d1d1"
     inkscape:document-units="mm"
     showgrid="false"
     inkscape:zoom="1.7192556"
     inkscape:cx="111.96706"
     inkscape:cy="106.15059"
     inkscape:window-width="1366"
     inkscape:window-height="708"
     inkscape:window-x="0"
     inkscape:window-y="0"
     inkscape:window-maximized="1"
     inkscape:current-layer="g1202" />
  <defs
     id="defs2" />
  <g
     inkscape:label="Layer 1"
     inkscape:groupmode="layer"
     id="layer1">
    <g
       id="g1202"
       style="fill:#ffffff;fill-opacity:1;stroke:#000000;stroke-opacity:1">
      <path
         id="path234-6"
         style="fill:#ffffff;fill-opacity:1;stroke:#000000;stroke-width:1.76397708;stroke-linejoin:round;stroke-dasharray:none;stroke-opacity:1;stop-color:#000000"
         d="M 29.83751,1.322915 A 14.257264,12.372104 0 0 0 15.57997,13.695178 14.257264,12.372104 0 0 0 1.322915,26.066972 14.257264,12.372104 0 0 0 15.57997,38.439234 14.257264,12.372104 0 0 0 25.615414,34.85131 18.743239,12.372104 0 0 0 38.809525,38.439234 18.743239,12.372104 0 0 0 53.04858,34.097668 14.25723,12.372104 0 0 0 63.86919,38.439234 14.25723,12.372104 0 0 0 78.126732,26.066972 14.25723,12.372104 0 0 0 63.86919,13.695178 14.257264,12.372104 0 0 0 49.612137,1.322915 14.257264,12.372104 0 0 0 39.724581,4.7959796 14.257264,12.372104 0 0 0 29.83751,1.322915 Z" />
    </g>
  </g>
</svg>
