<?xml version="1.0" encoding="UTF-8" standalone="no"?>
<!-- Created with Inkscape (http://www.inkscape.org/) -->

<svg
   width="154"
   height="253"
   viewBox="0 0 40.745833 66.939583"
   version="1.1"
   id="svg1265"
   xml:space="preserve"
   inkscape:version="1.2.1 (9c6d41e410, 2022-07-14, custom)"
   sodipodi:docname="Spaceship.svg"
   inkscape:export-filename="Spaceship.png"
   inkscape:export-xdpi="96"
   inkscape:export-ydpi="96"
   xmlns:inkscape="http://www.inkscape.org/namespaces/inkscape"
   xmlns:sodipodi="http://sodipodi.sourceforge.net/DTD/sodipodi-0.dtd"
   xmlns="http://www.w3.org/2000/svg"
   xmlns:svg="http://www.w3.org/2000/svg"><sodipodi:namedview
     id="namedview1267"
     pagecolor="#ffffff"
     bordercolor="#666666"
     borderopacity="1.0"
     inkscape:showpageshadow="2"
     inkscape:pageopacity="0.0"
     inkscape:pagecheckerboard="0"
     inkscape:deskcolor="#d1d1d1"
     inkscape:document-units="mm"
     showgrid="false"
     inkscape:zoom="2.587703"
     inkscape:cx="60.091905"
     inkscape:cy="194.57411"
     inkscape:window-width="1366"
     inkscape:window-height="708"
     inkscape:window-x="0"
     inkscape:window-y="0"
     inkscape:window-maximized="1"
     inkscape:current-layer="g79382" /><defs
     id="defs1262" /><g
     inkscape:label="Layer 1"
     inkscape:groupmode="layer"
     id="layer1"><g
       id="g79382"><g
         id="g990"><path
           style="fill:#a9a9a9;stroke-width:0.264559"
           d="M 14.053985,43.778922 C 9.0782562,42.391014 6.6753182,39.216471 5.569312,33.033037 2.3937309,22.161457 5.6447362,5.8579211 20.376584,3.1766303 c 2.810764,0 11.900361,7.3151167 12.824818,10.3211427 0.1112,0.36159 0.308255,0.790624 0.437897,0.95341 2.500317,3.139555 2.387683,18.2639 -0.175369,23.548415 -2.539971,5.236925 -9.109476,8.65249 -19.409945,5.779324 z"
           id="path79392"
           sodipodi:nodetypes="sccssss" /><path
           style="fill:#a95454;stroke-width:0.264559"
           d="m 16.699656,50.939039 c -1.982999,-0.950497 -2.250812,-1.548726 -2.533214,-3.054327 l -0.172781,-0.921171 h 6.382923 6.382924 l -0.172781,1.388524 c -0.264598,2.126397 -3.078934,3.241685 -6.210143,3.241685 -1.430574,0 -2.117633,0.09269 -3.676928,-0.654711 z"
           id="path79390"
           sodipodi:nodetypes="sscccsss" /><path
           style="fill:#3870a9;stroke-width:0.264559"
           d="m 17.069888,35.03146 c -2.659837,-1.45924 -2.91104,-2.360676 -2.90519,-10.42521 0.0072,-9.872576 0.781993,-11.377083 5.85927,-11.377083 4.736839,0 6.205079,1.4614 6.735003,6.703628 0.956088,9.458026 0.466736,13.654008 -1.724746,14.789013 -1.494066,0.7738 -6.746104,0.978 -7.964337,0.309652 z"
           id="path79388" /><path
           style="fill:#a90000;stroke-width:0.264559"
           d="M 4.9379416,62.166915 C 4.6445324,61.236291 4.4722958,60.278719 4.1069443,57.546875 3.8928661,55.946146 3.5909541,53.922083 3.4360291,53.048958 3.281104,52.175833 3.0882559,50.261655 3.0074778,48.795231 L 2.8606081,46.129003 4.2446026,45.240736 c 2.0761727,-1.332516 4.0881831,-1.54768 5.1537506,-0.551143 0.4364839,0.408207 0.9916328,0.81126 1.2336628,0.895673 0.638581,0.222718 0.378507,1.840846 -0.83814,5.214734 -0.5509963,1.527968 -1.2418913,3.560696 -1.5353223,4.517175 -1.0489711,3.419264 -3.0807732,7.610454 -3.3206121,6.84974 z M 34.386375,60.877313 C 33.795469,59.681447 33.06187,57.06401 32.667625,55.827083 32.273379,54.590156 31.502313,52.327968 30.954148,50.8 c -1.212569,-3.379936 -1.470161,-4.99251 -0.832994,-5.214734 0.242029,-0.08441 0.797178,-0.487466 1.233662,-0.895673 1.065568,-0.996537 3.077576,-0.781373 5.15375,0.551143 l 1.383996,0.888267 -0.146871,2.666228 c -0.08078,1.466424 -0.263453,3.321071 -0.405942,4.121435 -0.142493,0.800365 -0.385337,2.407709 -0.539653,3.571875 -0.862511,6.506747 -1.003196,7.24338 -2.413721,4.388772 z"
           id="path79386"
           sodipodi:nodetypes="sssscsssssssssssscssss" /><path
           style="fill:#000000;stroke-width:0.264559"
           d="M 3.3738005,66.20823 C 2.5448297,65.342815 2.0640038,64.043576 1.6371492,61.515625 -0.05123095,51.516573 -0.44866551,45.365762 0.51449368,44.141083 1.1248602,43.364989 4.4592899,41.275 5.0871287,41.275 5.4167996,41.275 5.2880554,40.839326 4.4811882,39.224479 0.00255622,30.261044 1.9243804,13.99127 8.2079425,7.6745324 c 9.5248865,-9.5751755 14.8123975,-9.5751755 24.3372845,0 6.283561,6.3167376 8.205386,22.5865116 3.726755,31.5499466 -0.806869,1.614847 -0.935613,2.050521 -0.605941,2.050521 0.627839,0 3.962269,2.089989 4.572634,2.866083 1.072275,1.363422 -0.18836,15.590573 -1.79707,20.281209 -1.729287,5.042212 -5.796746,1.409137 -8.832431,-7.889174 C 27.980229,51.543661 28.082092,51.73854 27.416062,52.337337 24.80545,54.684424 18.990485,55.340623 15.59106,53.671748 14.65848,53.213918 13.644202,52.613433 13.337107,52.337337 12.671078,51.73854 12.77294,51.543661 11.143996,56.533118 8.6677346,64.117913 5.3402597,68.26114 3.3738005,66.20823 Z M 7.0640372,58.624467 C 7.4275905,57.761933 7.9651228,56.273652 8.2585537,55.317175 8.5519847,54.360696 9.2428797,52.327968 9.793876,50.8 11.010523,47.426112 11.270597,45.807984 10.632016,45.585266 10.389986,45.500853 9.8348371,45.0978 9.3983532,44.689593 8.3327857,43.693056 6.3207753,43.90822 4.2446026,45.240736 l -1.3839945,0.888267 0.1468697,2.666228 c 0.080778,1.466424 0.2736262,3.380602 0.4285513,4.253727 0.154925,0.873125 0.456837,2.897188 0.6709152,4.497917 0.3653515,2.731844 0.5375881,3.689416 0.8309973,4.62004 0.143764,0.455986 1.1414007,-1.206251 2.1260956,-3.542448 z M 36.207155,60.40316 c 0.1718,-0.988872 0.438624,-2.750452 0.592941,-3.914619 0.154316,-1.164166 0.39716,-2.77151 0.539653,-3.571875 0.142489,-0.800364 0.325164,-2.655011 0.405942,-4.121435 l 0.146871,-2.666228 -1.383996,-0.888267 c -2.076174,-1.332516 -4.088182,-1.54768 -5.15375,-0.551143 -0.436484,0.408207 -0.991633,0.81126 -1.233662,0.895673 -0.637167,0.222224 -0.379575,1.834798 0.832994,5.214734 0.548165,1.527968 1.319231,3.790156 1.713477,5.027083 0.784663,2.461853 2.758329,6.663841 3.046361,6.485797 0.09944,-0.06147 0.321371,-0.920845 0.493169,-1.90972 z M 24.00146,50.687605 c 1.982999,-0.950497 2.302865,-1.297292 2.585267,-2.802893 l 0.172781,-0.921171 h -6.382924 -6.382923 l 0.172781,0.921171 c 0.395029,2.106062 3.078934,3.709038 6.210142,3.709038 1.430575,0 2.06558,-0.15874 3.624876,-0.906145 z m 2.154196,-6.914682 C 31.26457,42.363922 33.824305,39.209424 34.945579,32.940625 36.021437,26.925738 35.28621,16.51915 33.639299,14.451183 33.509657,14.288397 33.312602,13.859363 33.201402,13.497773 32.276945,10.491747 23.187348,3.1766303 20.376584,3.1766303 5.5544338,7.1790579 1.8842956,25.671364 7.2892389,37.999598 9.7968624,43.169827 18.588037,45.86002 26.155656,43.772923 Z"
           id="path79384"
           sodipodi:nodetypes="ssssssssssssssssssssssscssssssssscssssssssscccsssssscccs" /></g><g
         id="g1520"><path
           style="fill:#ff0000;fill-opacity:1;stroke:none;stroke-width:0.264583px;stroke-linecap:butt;stroke-linejoin:miter;stroke-opacity:1"
           d="m 11.616874,49.318087 2.422282,13.958532 3.291135,-6.753595 2.287671,9.746716 3.541642,-9.892123 2.821076,6.584429 1.874478,-14.878495 -2.133106,0.162172 -11.955572,0.908938 z"
           id="path1055"
           sodipodi:nodetypes="cccccccccc" /><path
           style="fill:#ffff00;fill-opacity:1;stroke:none;stroke-width:0.264583px;stroke-linecap:butt;stroke-linejoin:miter;stroke-opacity:1"
           d="m 13.76648,49.154661 1.346569,6.229641 2.759095,-3.430063 1.703388,6.898097 3.049621,-7.321526 2.557411,5.71056 0.539488,-8.995647 z"
           id="path1420"
           sodipodi:nodetypes="cccccccc" /></g></g></g></svg>
